HIERARCHY
ROOT joint_0
{
	OFFSET 0.000000 0.000000 0.000000
	CHANNELS 6 Xposition Yposition Zposition Zrotation Yrotation Xrotation 
	JOINT joint_1
	{
		OFFSET 6.004005 -1.946999 100.587036
		CHANNELS 3 Zrotation Yrotation Xrotation
		JOINT joint_2
		{
			OFFSET -4.601006 -0.824997 91.925903
			CHANNELS 3 Zrotation Yrotation Xrotation
			JOINT joint_3
			{
				OFFSET -5.420998 -1.130005 91.774048
				CHANNELS 3 Zrotation Yrotation Xrotation
				JOINT joint_4
				{
					OFFSET 4.308998 -3.777992 123.473999
					CHANNELS 3 Zrotation Yrotation Xrotation
					JOINT joint_5
					{
						OFFSET 25.565002 -6.305008 79.437988
						CHANNELS 3 Zrotation Yrotation Xrotation
						End Site
						{
							OFFSET 0.000000 0.000000 0.000000
						}
					}
				}
				JOINT joint_6
				{
					OFFSET -1.750000 -28.655998 68.557983
					CHANNELS 3 Zrotation Yrotation Xrotation
					JOINT joint_7
					{
						OFFSET -17.692001 -116.544006 -17.244019
						CHANNELS 3 Zrotation Yrotation Xrotation
						JOINT joint_8
						{
							OFFSET 27.063004 -23.640991 -266.895020
							CHANNELS 3 Zrotation Yrotation Xrotation
							JOINT joint_9
							{
								OFFSET 40.722000 -15.761017 -232.488953
								CHANNELS 3 Zrotation Yrotation Xrotation
								End Site
								{
									OFFSET 0.000000 0.000000 0.000000
								}
							}
						}
					}
				}
				JOINT joint_10
				{
					OFFSET 6.593002 24.457001 69.892944
					CHANNELS 3 Zrotation Yrotation Xrotation
					JOINT joint_11
					{
						OFFSET 24.311996 114.920002 -19.872925
						CHANNELS 3 Zrotation Yrotation Xrotation
						JOINT joint_12
						{
							OFFSET 21.081001 15.319000 -268.037964
							CHANNELS 3 Zrotation Yrotation Xrotation
							JOINT joint_13
							{
								OFFSET 27.794006 -8.947001 -234.744080
								CHANNELS 3 Zrotation Yrotation Xrotation
								End Site
								{
									OFFSET 0.000000 0.000000 0.000000
								}
							}
						}
					}
				}
			}
		}
	}
	JOINT joint_14
	{
		OFFSET -6.627998 -80.520004 -98.790039
		CHANNELS 3 Zrotation Yrotation Xrotation
		JOINT joint_15
		{
			OFFSET -43.638000 -13.751999 -502.538971
			CHANNELS 3 Zrotation Yrotation Xrotation
			JOINT joint_16
			{
				OFFSET -39.532999 -9.912994 -398.071007
				CHANNELS 3 Zrotation Yrotation Xrotation
				JOINT joint_17
				{
					OFFSET 174.940004 -34.660995 -75.688002
					CHANNELS 3 Zrotation Yrotation Xrotation
					End Site
					{
						OFFSET 0.000000 0.000000 0.000000
					}
				}
			}
		}
	}
	JOINT joint_18
	{
		OFFSET 12.591003 79.842003 -98.765015
		CHANNELS 3 Zrotation Yrotation Xrotation
		JOINT joint_19
		{
			OFFSET -39.080002 -1.297001 -503.101013
			CHANNELS 3 Zrotation Yrotation Xrotation
			JOINT joint_20
			{
				OFFSET -51.570000 -0.514000 -396.815987
				CHANNELS 3 Zrotation Yrotation Xrotation
				JOINT joint_21
				{
					OFFSET 178.987999 -11.521999 -73.244003
					CHANNELS 3 Zrotation Yrotation Xrotation
					End Site
					{
						OFFSET 0.000000 0.000000 0.000000
					}
				}
			}
		}
	}
}
MOTION
Frames: 6
Frame Time: 0.016667
158.248000 -163.425000 1094.735960 -2.986158 5.569131 -2.277131 0.257567 -0.290233 -0.786099 0.298206 0.037195 0.149210 0.278093 -0.095204 -0.135648 -0.746501 4.606698 3.586674 0.000000 0.000000 0.000000 0.975535 -1.080241 -0.768102 -0.569803 -0.628177 -2.313959 1.691350 -20.263283 2.517513 0.000000 0.000000 0.000000 0.417602 -3.077745 1.650460 0.597410 -3.808452 5.318817 -0.331303 -5.999086 -4.998353 0.000000 0.000000 0.000000 -0.694361 -10.041514 5.528682 -0.882494 18.063550 -1.219415 -0.642640 -5.261028 -1.299867 0.000000 0.000000 0.000000 1.697490 -8.862845 2.776353 1.592463 16.450649 3.936937 2.195301 -5.712295 0.501440 0.000000 0.000000 0.000000 
163.447010 -166.656010 1094.312010 -3.217619 5.293109 -2.531348 0.370639 0.170276 -0.490284 0.387789 -0.034521 0.113217 0.374402 0.002613 -0.089378 -0.751008 4.760029 3.639991 0.000000 0.000000 0.000000 0.980345 -1.099141 -0.774866 -0.552704 -0.652241 -2.286959 1.667229 -19.868345 2.522561 0.000000 0.000000 0.000000 0.372605 -3.163126 1.461096 0.624773 -3.922528 5.324336 -0.297353 -6.292464 -4.811602 0.000000 0.000000 0.000000 -0.667378 -9.535898 5.929076 -0.864287 18.266789 -1.127091 -0.649046 -5.361129 -1.320328 0.000000 0.000000 0.000000 1.851391 -9.800018 2.887928 1.629301 19.717060 4.696401 2.360797 -6.145152 0.530693 0.000000 0.000000 0.000000 
168.633000 -169.871990 1093.823000 -3.459527 4.969740 -2.816926 0.479659 0.670973 -0.108586 0.485749 -0.107368 0.042973 0.483185 0.104590 -0.044006 -0.755141 4.869747 3.677262 0.000000 0.000000 0.000000 1.014204 -1.156790 -0.745122 -0.525681 -0.702719 -2.284207 1.614600 -19.099864 2.482247 0.000000 0.000000 0.000000 0.318737 -3.186432 1.252768 0.664912 -3.964845 5.283441 -0.253729 -6.693319 -4.584285 0.000000 0.000000 0.000000 -0.626762 -8.994134 6.364029 -0.835920 18.501390 -1.044207 -0.655353 -5.459922 -1.340172 0.000000 0.000000 0.000000 1.997072 -10.926693 3.050779 1.620128 23.446014 5.435732 2.466633 -6.273393 0.552532 0.000000 0.000000 0.000000 
173.782000 -172.939000 1093.302000 -3.657663 4.652448 -3.052786 0.563945 1.187421 0.240283 0.587718 -0.183809 -0.016198 0.597644 0.207644 0.002092 -0.761077 4.931192 3.703740 0.000000 0.000000 0.000000 1.024185 -1.223763 -0.724567 -0.490828 -0.769622 -2.273299 1.544679 -18.129606 2.402411 0.000000 0.000000 0.000000 0.288285 -3.170959 1.047809 0.704529 -3.961979 5.197565 -0.210647 -7.117423 -4.366315 0.000000 0.000000 0.000000 -0.583069 -8.482667 6.742924 -0.814333 18.787907 -0.970314 -0.678918 -5.574034 -1.369783 0.000000 0.000000 0.000000 2.206709 -12.308528 3.115375 1.602295 27.530433 6.275937 2.577668 -6.176590 0.586736 0.000000 0.000000 0.000000 
178.793000 -175.784000 1092.770020 -3.761834 4.377648 -3.193377 0.601903 1.711803 0.504732 0.687849 -0.257576 -0.049221 0.711835 0.311300 0.050063 -0.771895 4.928753 3.723911 0.000000 0.000000 0.000000 0.967992 -1.296880 -0.743110 -0.447027 -0.863328 -2.236740 1.461770 -17.020580 2.286153 0.000000 0.000000 0.000000 0.306760 -3.135692 0.850929 0.736100 -3.942867 5.091874 -0.178620 -7.524159 -4.227387 0.000000 0.000000 0.000000 -0.547725 -8.061023 7.020853 -0.819457 19.160621 -0.908789 -0.744216 -5.710849 -1.420380 0.000000 0.000000 0.000000 2.561326 -14.070584 2.953208 1.601579 32.054944 7.397987 2.786477 -5.822237 0.668339 0.000000 0.000000 0.000000 
183.675000 -178.463000 1092.215940 -3.825889 4.113685 -3.316210 0.595153 2.274661 0.817803 0.804663 -0.338090 -0.116995 0.852568 0.416617 0.098409 -0.786117 4.866391 3.734545 0.000000 0.000000 0.000000 0.868572 -1.390615 -0.774859 -0.394684 -0.987688 -2.196599 1.360087 -15.700773 2.129882 0.000000 0.000000 0.000000 0.362828 -3.071229 0.648361 0.764560 -3.899373 4.971252 -0.154502 -7.942451 -4.149751 0.000000 0.000000 0.000000 -0.510644 -7.693137 7.286385 -0.834168 19.605592 -0.867916 -0.840943 -5.839485 -1.481565 0.000000 0.000000 0.000000 3.073188 -16.149903 2.652948 1.598381 36.964544 8.757568 3.090372 -4.993334 0.806245 0.000000 0.000000 0.000000 
